<svg width="136" height="130" fill="none" xmlns="http://www.w3.org/2000/svg"><g clip-path="url(#clip0)"><path d="M136 0H0v129.039h136V0z" fill="#004B93"/><path fill-rule="evenodd" clip-rule="evenodd" d="M106.161 113.564c6.477 0 7.484 3.641 7.484 6.008s-1.007 6.008-7.484 6.008c-6.476 0-7.483-3.641-7.483-6.008 0-2.321 1.055-6.008 7.483-6.008zm0 9.922c2.975 0 4.03-2.093 4.03-3.869 0-1.775-1.055-3.868-4.03-3.868-2.974 0-4.029 2.093-4.029 3.868.048 1.776 1.103 3.869 4.029 3.869zm-91.482-5.28c-.288-1.638-1.727-2.457-3.454-2.457-3.118 0-3.742 2.321-3.742 3.868 0 1.548.672 3.869 3.742 3.869 1.583 0 3.118-.728 3.454-2.549h3.55c-.432 3.323-3.31 4.689-7.148 4.689-4.365 0-7.1-1.776-7.1-6.009 0-4.233 2.735-6.008 7.1-6.008 2.879 0 6.572.683 7.1 4.643H14.68v-.046zm4.27-4.324h11.225v2.185h-7.963v2.367h7.58v2.094h-7.58v2.64h8.059v2.184H18.949v-11.47zm25.569 0h-3.119v7.966h-.047l-6.333-7.966h-3.838v11.425h3.167v-7.965h.048l6.572 7.965h3.55v-11.425zm5.276 2.185h-4.46v-2.185h12.184v2.185h-4.461v9.24h-3.263v-9.24zm19.765-2.185H58.334v11.47h11.32v-2.184h-8.058v-2.64h7.58v-2.094h-7.58v-2.367h7.963v-2.185zm1.007 0h8.731c3.358 0 3.886 1.958 3.886 3.095 0 1.411-.576 2.276-1.967 2.731v.046c1.44.228 1.631 1.912 1.631 3.05 0 .546.048 1.911.624 2.457h-3.55c-.288-.546-.336-1.001-.336-2.184 0-1.593-.72-2.003-1.727-2.003H73.78v4.187h-3.262v-11.379h.048zm3.262 5.053h4.318c.72 0 1.583-.364 1.583-1.457 0-1.138-.96-1.411-1.727-1.411h-4.174v2.868zm16.982-3.186c1.727 0 3.166.819 3.454 2.457v.046h3.55c-.527-3.96-4.221-4.643-7.1-4.643-4.365 0-7.1 1.775-7.1 6.008 0 4.233 2.735 6.009 7.1 6.009 3.79 0 6.668-1.366 7.1-4.689h-3.55c-.335 1.821-1.87 2.549-3.454 2.549-3.07 0-3.741-2.321-3.741-3.869 0-1.547.623-3.868 3.741-3.868zm41.064-1.867h-4.797l-3.598 8.239-3.55-8.239h-4.797v11.425h3.166v-9.149h.048l3.79 9.149h2.734l3.79-9.149h.048v9.149h3.166v-11.425z" fill="#fff"/></g><defs><clipPath id="clip0"><path fill="#fff" d="M0 0h136v129.039H0z"/></clipPath></defs></svg>